HIERARCHY
ROOT hip
{
  OFFSET 0 0 0
  CHANNELS 6 Xposition Yposition Zposition Zrotation Yrotation Xrotation
  JOINT abdomen
  {
    OFFSET 0 20.6881 -0.73152
    CHANNELS 3 Zrotation Xrotation Yrotation
    JOINT chest
    {
      OFFSET 0 11.7043 -0.48768
      CHANNELS 3 Zrotation Xrotation Yrotation
      JOINT neck
      {
        OFFSET 0 22.1894 -2.19456
        CHANNELS 3 Zrotation Xrotation Yrotation
        JOINT head
        {
          OFFSET -0.24384 7.07133 1.2192
          CHANNELS 3 Zrotation Xrotation Yrotation
          JOINT leftEye
          {
            OFFSET 4.14528 8.04674 8.04672
            CHANNELS 3 Zrotation Xrotation Yrotation
            End Site
            {
              OFFSET 1 0 0
            }
          }
          JOINT rightEye
          {
            OFFSET -3.6576 8.04674 8.04672
            CHANNELS 3 Zrotation Xrotation Yrotation
            End Site
            {
              OFFSET 1 0 0
            }
          }
        }
      }
      JOINT rCollar
      {
        OFFSET -2.68224 19.2634 -4.8768
        CHANNELS 3 Zrotation Xrotation Yrotation
        JOINT rShldr
        {
          OFFSET -8.77824 -1.95073 1.46304
          CHANNELS 3 Zrotation Xrotation Yrotation
          JOINT rForeArm
          {
            OFFSET -28.1742 -1.7115 0.48768
            CHANNELS 3 Zrotation Xrotation Yrotation
            JOINT rHand
            {
              OFFSET -22.5879 0.773209 7.07136
              CHANNELS 3 Zrotation Xrotation Yrotation
              JOINT rThumb1
              {
                OFFSET -1.2192 -0.487915 3.41376
                CHANNELS 3 Zrotation Xrotation Yrotation
                JOINT rThumb2
                {
                  OFFSET -3.37035 -0.52449 3.41376
                  CHANNELS 3 Zrotation Xrotation Yrotation
                  End Site
                  {
                    OFFSET -1.78271 -1.18214 1.43049
                  }
                }
              }
              JOINT rIndex1
              {
                OFFSET -7.75947 0.938293 5.60832
                CHANNELS 3 Zrotation Xrotation Yrotation
                JOINT rIndex2
                {
                  OFFSET -2.54057 -0.884171 1.56538
                  CHANNELS 3 Zrotation Xrotation Yrotation
                  End Site
                  {
                    OFFSET -1.62519 -0.234802 1.16502
                  }
                }
              }
              JOINT rMid1
              {
                OFFSET -8.24714 1.18213 3.41376
                CHANNELS 3 Zrotation Xrotation Yrotation
                JOINT rMid2
                {
                  OFFSET -3.10165 -0.590103 1.0647
                  CHANNELS 3 Zrotation Xrotation Yrotation
                  End Site
                  {
                    OFFSET -2.48547 -0.328903 0.83742
                  }
                }
              }
              JOINT rRing1
              {
                OFFSET -8.82822 0.546677 1.51678
                CHANNELS 3 Zrotation Xrotation Yrotation
                JOINT rRing2
                {
                  OFFSET -2.60934 -0.819778 -0.0198488
                  CHANNELS 3 Zrotation Xrotation Yrotation
                  End Site
                  {
                    OFFSET -2.33842 -0.294052 0.168128
                  }
                }
              }
              JOINT rPinky1
              {
                OFFSET -8.27202 -0.0477905 -0.4584
                CHANNELS 3 Zrotation Xrotation Yrotation
                JOINT rPinky2
                {
                  OFFSET -1.82734 -0.647385 -0.700984
                  CHANNELS 3 Zrotation Xrotation Yrotation
                  End Site
                  {
                    OFFSET -1.69225 -0.51767 -0.607171
                  }
                }
              }
            }
          }
        }
      }
      JOINT lCollar
      {
        OFFSET 2.68224 19.2634 -4.8768
        CHANNELS 3 Zrotation Xrotation Yrotation
        JOINT lShldr
        {
          OFFSET 8.77824 -1.95073 1.46304
          CHANNELS 3 Zrotation Xrotation Yrotation
          JOINT lForeArm
          {
            OFFSET 28.1742 -1.7115 0.48768
            CHANNELS 3 Zrotation Xrotation Yrotation
            JOINT lHand
            {
              OFFSET 22.5879 0.773209 7.07136
              CHANNELS 3 Zrotation Xrotation Yrotation
              JOINT lThumb1
              {
                OFFSET 1.2192 -0.487915 3.41376
                CHANNELS 3 Zrotation Xrotation Yrotation
                JOINT lThumb2
                {
                  OFFSET 3.37035 -0.52449 3.41376
                  CHANNELS 3 Zrotation Xrotation Yrotation
                  End Site
                  {
                    OFFSET 1.78271 -1.18214 1.43049
                  }
                }
              }
              JOINT lIndex1
              {
                OFFSET 7.75947 0.938293 5.60832
                CHANNELS 3 Zrotation Xrotation Yrotation
                JOINT lIndex2
                {
                  OFFSET 2.54057 -0.884171 1.56538
                  CHANNELS 3 Zrotation Xrotation Yrotation
                  End Site
                  {
                    OFFSET 1.62519 -0.234802 1.16502
                  }
                }
              }
              JOINT lMid1
              {
                OFFSET 8.24714 1.18213 3.41376
                CHANNELS 3 Zrotation Xrotation Yrotation
                JOINT lMid2
                {
                  OFFSET 3.10165 -0.590103 1.0647
                  CHANNELS 3 Zrotation Xrotation Yrotation
                  End Site
                  {
                    OFFSET 2.48547 -0.328903 0.83742
                  }
                }
              }
              JOINT lRing1
              {
                OFFSET 8.82822 0.546677 1.51678
                CHANNELS 3 Zrotation Xrotation Yrotation
                JOINT lRing2
                {
                  OFFSET 2.60934 -0.819778 -0.0198488
                  CHANNELS 3 Zrotation Xrotation Yrotation
                  End Site
                  {
                    OFFSET 2.33842 -0.294052 0.168128
                  }
                }
              }
              JOINT lPinky1
              {
                OFFSET 8.27202 -0.0477905 -0.4584
                CHANNELS 3 Zrotation Xrotation Yrotation
                JOINT lPinky2
                {
                  OFFSET 1.82734 -0.647385 -0.700984
                  CHANNELS 3 Zrotation Xrotation Yrotation
                  End Site
                  {
                    OFFSET 1.69225 -0.51767 -0.607171
                  }
                }
              }
            }
          }
        }
      }
    }
  }
  JOINT rButtock
  {
    OFFSET -8.77824 4.35084 1.2192
    CHANNELS 3 Zrotation Xrotation Yrotation
    JOINT rThigh
    {
      OFFSET 0 -1.70687 -2.19456
      CHANNELS 3 Zrotation Xrotation Yrotation
      JOINT rShin
      {
        OFFSET 0 -36.8199 0.73152
        CHANNELS 3 Zrotation Xrotation Yrotation
        JOINT rFoot
        {
          OFFSET 0.73152 -45.1104 -5.12064
          CHANNELS 3 Zrotation Xrotation Yrotation
          End Site
          {
            OFFSET -1.1221 -3.69964 12.103
          }
        }
      }
    }
  }
  JOINT lButtock
  {
    OFFSET 8.77824 4.35084 1.2192
    CHANNELS 3 Zrotation Xrotation Yrotation
    JOINT lThigh
    {
      OFFSET 0 -1.70687 -2.19456
      CHANNELS 3 Zrotation Xrotation Yrotation
      JOINT lShin
      {
        OFFSET 0 -36.8199 0.73152
        CHANNELS 3 Zrotation Xrotation Yrotation
        JOINT lFoot
        {
          OFFSET -0.73152 -45.1104 -5.12064
          CHANNELS 3 Zrotation Xrotation Yrotation
          End Site
          {
            OFFSET 1.1221 -3.69964 12.103
          }
        }
      }
    }
  }
}
MOTION
Frames:	10
Frame Time:	0.00833333
0.0 0.0 0.0 0.0 0.0 0.0 0.0 0.0 0.0 0.0 0.0 0.0 0.0 0.0 0.0 0.0 0.0 0.0 0.0 0.0 0.0 0.0 0.0 0.0 0.0 0.0 0.0 0.0 0.0 0.0 0.0 0.0 0.0 0.0 0.0 0.0 0.0 0.0 0.0 0.0 0.0 0.0 0.0 0.0 0.0 0.0 0.0 0.0 0.0 0.0 0.0 0.0 0.0 0.0 0.0 0.0 0.0 0.0 0.0 0.0 0.0 0.0 0.0 0.0 0.0 0.0 0.0 0.0 0.0 0.0 0.0 0.0 0.0 0.0 0.0 0.0 0.0 0.0 0.0 0.0 0.0 0.0 0.0 0.0 0.0 0.0 0.0 0.0 0.0 0.0 0.0 0.0 0.0 0.0 0.0 0.0 0.0 0.0 0.0 0.0 0.0 0.0 0.0 0.0 0.0 0.0 0.0 0.0 0.0 0.0 0.0 0.0 0.0 0.0 0.0 0.0 0.0 0.0 0.0 0.0 0.0 0.0 0.0 0.0 0.0 0.0 0.0 0.0 0.0 0.0 0.0 0.0
118.10800000000002 83.6494 -5.49154 -0.0 0.0 -0.0 -0.0 -4.771896 -180.0 -0.0 -4.771896 180.0 -2.189902 0.70575 -13.10212 2.292863 -0.190556 13.119422 0.0 -0.0 -0.0 0.0 -0.0 -0.0 -142.973735 39.431617 147.390037 -151.976127 -2.301811 170.953719 3.929914 32.545513 0.420359 -4.547697 14.422413 0.079287 -173.770775 -11.439911 89.891324 -171.414506 -8.566794 91.413704 -160.015165 -33.011829 122.698522 -72.617111 55.201392 66.32661 -0.057679 0.167876 0.032027 -44.505175 58.240571 35.366439 -145.121957 1.974539 -179.748654 -143.962233 -11.936352 -177.20754 4.763426 13.903473 4.303395 -25.535606 -39.480632 -23.846783 143.620413 38.233348 -148.080496 -94.002643 -84.675876 -68.341257 -172.890373 38.837018 -152.690041 -178.342757 7.245849 -145.338473 5.132087 4.978853 -1.005551 116.216781 -7.698362 -104.569884 152.105085 -18.556554 -121.367907 149.258695 -13.014293 -120.635639 160.09819 -4.901163 -142.968881 159.937139 -4.458192 -143.106699 -0.000171 0.022665 -0.007121 -0.016382 -0.254151 0.036189 6.122172 -13.785508 5.752615 -48.148384 85.641734 12.183634 -0.0 0.0 -0.0 -0.0 -2.27635 -180.0 -4.055723 -2.993391 -143.675094 72.408322 -56.754181 -23.284793 -0.0 0.0 -0.0 -0.0 -2.27635 -180.0 4.055723 -2.993391 143.675094 -72.408322 -56.754181 23.284793
118.05499999999999 83.5865 -5.42722 -0.0 0.0 -0.0 -0.0 -4.771896 -180.0 -0.0 -4.771896 -180.0 -8.144544 9.765136 -77.762661 11.253376 5.904095 77.877376 0.0 -0.0 -0.0 0.0 -0.0 -0.0 -85.537448 68.182427 88.688908 5.843373 75.512119 13.59165 -89.965011 -75.613432 -111.641759 48.596287 -65.591705 35.268978 -160.052267 2.213243 88.877504 -69.843642 -2.455188 25.437338 -19.170572 24.114561 13.380841 -162.073752 5.454864 113.551196 23.903801 -61.333833 1.399383 -165.259247 -5.644365 140.502203 0.004873 1.771387 0.556475 -166.85447 -27.253186 175.344448 1.134951 3.04054 1.043633 -23.679042 -38.631449 -21.986429 159.220516 -48.028485 -170.415257 -2.863803 15.761291 -22.442298 179.73087 79.212988 177.178029 5.241036 16.539349 -0.191858 0.543938 0.536215 -0.086055 171.109657 -76.139234 -109.119351 77.667448 43.02965 -64.538509 -3.381009 4.495866 13.264648 160.573436 -6.359341 -143.198121 -1.661966 13.105202 -2.577866 145.108492 3.677793 -179.715527 -1.173092 -61.625877 30.001853 -1.134951 3.04054 -1.043633 150.307065 13.019817 143.850089 -0.0 0.0 -0.0 -0.0 -0.0 -0.0 7.081855 4.181059 77.332942 -151.579957 -27.88746 98.276681 -0.0 0.0 -0.0 -0.0 -0.0 -0.0 -7.081855 4.181059 -77.332942 151.579957 -27.88746 -98.276681
118.00399999999999 83.5776 -5.37182 -0.0 0.0 -0.0 -0.0 -4.771896 -180.0 0.0 -4.771896 -180.0 10.50515 4.498364 68.886613 -7.991713 8.18131 -68.727902 0.0 0.0 0.0 0.0 0.0 0.0 -155.417258 -2.951435 161.718542 98.127956 -75.993146 75.587594 165.11178 -0.127704 166.646274 -95.255924 74.47317 75.76334 -2.608268 2.55464 0.457401 -26.829827 21.573164 24.992159 176.550355 -61.588449 114.664817 -59.398996 49.907471 54.730321 -175.766492 -50.334504 144.098384 -171.682644 -31.789619 141.136531 -145.121954 1.975391 -179.748922 -15.343686 -71.882257 -46.812664 -145.173549 12.06758 -141.82295 -145.980353 14.502864 -142.397872 143.620413 38.233348 -148.080496 -24.954423 -24.939065 -6.720529 -177.301813 -50.275037 -174.430889 6.991775 21.701769 -0.588732 4.166296 4.057514 -0.783763 103.294987 7.521596 -94.489159 -9.087734 -15.965515 4.197453 5.086489 8.934313 -4.774897 159.365121 -2.685504 -142.597465 15.17215 42.683809 -14.834938 75.673382 -72.116249 92.828895 5.340622 54.708949 -24.117492 23.391137 -36.34947 22.493225 -32.943555 84.359743 -3.578559 -0.0 0.0 -0.0 -0.0 -2.27635 -180.0 -6.880793 -5.921355 -107.859822 -11.465574 25.060334 -64.504817 -0.0 0.0 -0.0 -0.0 -2.27635 -180.0 6.880793 -5.921355 107.859822 11.465574 25.060334 64.504817
117.939 83.5768 -5.33991 -0.0 0.0 -0.0 -0.0 -4.771896 -180.0 0.0 -4.771896 -180.0 10.50515 4.498364 68.886613 -7.991713 8.18131 -68.727902 0.0 0.0 0.0 0.0 0.0 0.0 -155.417258 -2.951435 161.718542 98.127956 -75.993146 75.587594 165.11178 -0.127704 166.646274 -95.255924 74.47317 75.76334 -2.608268 2.55464 0.457401 -26.829827 21.573164 24.992159 176.550355 -61.588449 114.664817 -59.398996 49.907471 54.730321 -175.766492 -50.334504 144.098384 -171.682644 -31.789619 141.136531 -145.121954 1.975391 -179.748922 -15.343686 -71.882257 -46.812664 -145.173549 12.06758 -141.82295 -145.980353 14.502864 -142.397872 143.620413 38.233348 -148.080496 -24.954423 -24.939065 -6.720529 -177.301813 -50.275037 -174.430889 6.991775 21.701769 -0.588732 4.166296 4.057514 -0.783763 103.294987 7.521596 -94.489159 -9.087734 -15.965515 4.197453 5.086489 8.934313 -4.774897 159.365121 -2.685504 -142.597465 15.17215 42.683809 -14.834938 75.673382 -72.116249 92.828895 5.340622 54.708949 -24.117492 23.391137 -36.34947 22.493225 -32.943555 84.359743 -3.578559 -0.0 0.0 -0.0 -0.0 -2.27635 -180.0 -6.880793 -5.921355 -107.859822 -11.465574 25.060334 -64.504817 -0.0 0.0 -0.0 -0.0 -2.27635 -180.0 6.880793 -5.921355 107.859822 11.465574 25.060334 64.504817
117.802 83.5793 -5.18766 -0.0 0.0 -0.0 -0.0 -4.771896 -180.0 -0.0 -4.771896 180.0 -2.189902 0.70575 -13.10212 2.292863 -0.190556 13.119422 0.0 -0.0 -0.0 0.0 -0.0 -0.0 -142.973735 39.431617 147.390037 -151.976127 -2.301811 170.953719 3.929914 32.545513 0.420359 -4.547697 14.422413 0.079287 -173.770775 -11.439911 89.891324 -171.414506 -8.566794 91.413704 -160.015165 -33.011829 122.698522 -72.617111 55.201392 66.32661 -0.057679 0.167876 0.032027 -166.800772 -5.678547 143.427152 -145.121954 1.975391 -179.748922 -143.731044 -13.760374 -176.925416 4.763426 13.903473 4.303395 -25.535606 -39.480632 -23.846783 143.620413 38.233348 -148.080496 -94.002643 -84.675876 -68.341257 -172.890373 38.837018 -152.690041 -178.342757 7.245849 -145.338473 -4.53085 -4.514112 0.520964 -19.634069 -36.91245 17.864411 151.353117 -17.158427 -121.133109 149.347481 -12.907258 -120.884311 151.476684 17.84174 -137.538824 172.677027 -42.704884 -144.296615 -0.004871 1.772325 -0.55677 164.180261 -64.597752 177.763179 -1.482059 4.003653 -1.360876 83.172598 -54.301816 80.200523 -0.0 0.0 -0.0 -0.0 -2.27635 -180.0 -4.055723 -2.993391 -143.675094 72.408322 -56.754181 -23.284793 -0.0 0.0 -0.0 -0.0 -2.27635 -180.0 4.055723 -2.993391 143.675094 -72.408322 -56.754181 23.284793
117.8 83.5601 -5.25716 -0.0 0.0 -0.0 -0.0 -4.771896 -180.0 -0.0 -4.771896 180.0 -0.352604 0.077114 -2.052654 0.35514 -0.064434 2.053091 0.0 -0.0 -0.0 0.0 -0.0 -0.0 -155.61387 -4.23638 161.991154 25.645881 -23.152161 16.353226 -179.467058 -5.258511 178.581908 -6.614222 20.61308 0.489834 -177.747581 -15.324192 89.569824 173.174343 -23.408773 100.453223 73.41997 -73.571281 26.563334 -7.184364 25.571022 13.634712 23.903801 -61.333833 1.399383 -89.31808 61.208725 79.422734 -145.099706 -1.521107 -178.650165 22.325347 34.88771 -4.704373 1.134951 3.04054 1.043633 -154.768388 28.794284 -146.971901 80.1661 68.371792 -83.260848 -16.926784 14.142456 0.162407 -179.717522 -64.541849 -175.997996 4.344734 13.796151 -0.051255 169.145705 -6.826433 -89.916077 1.458519 -52.041886 -9.18241 151.679432 -17.764752 -121.237135 142.23944 2.718002 -119.382681 36.036059 51.723116 -29.832321 12.773103 37.026303 -7.485136 145.119721 0.310087 179.225753 -22.264012 29.141469 5.764633 14.102891 -26.511289 13.432208 -35.377563 84.312221 -0.60797 -0.0 0.0 -0.0 -0.0 -0.0 -0.0 -4.919407 3.500227 -54.588129 88.891524 33.647607 -8.266405 -0.0 0.0 -0.0 -0.0 -0.0 -0.0 4.919407 3.500227 54.588129 -88.891524 33.647607 8.266405
117.804 83.5497 -5.32716 -0.0 0.0 -0.0 -0.0 -4.771896 -180.0 0.0 -4.771896 180.0 9.579663 3.263211 60.169506 -7.606876 6.687135 -59.997951 0.0 0.0 0.0 0.0 0.0 0.0 -155.504155 -3.514523 161.838528 98.113498 -75.898646 75.658498 3.234211 68.736305 -34.006903 169.726336 -19.105628 143.500061 5.189684 -5.174682 -0.567148 -131.726399 -27.140698 117.71676 -19.170572 24.114561 13.380841 24.995569 -40.378812 -1.932212 -0.057679 0.167876 0.032027 -166.715424 -5.416573 143.400867 0.004874 1.770919 0.556328 -164.283979 17.308355 169.683358 8.580128 27.211748 7.533938 13.846562 44.324876 6.91166 143.620413 38.233348 -148.080496 -94.002643 -84.675876 -68.341257 -157.077977 -42.980659 -148.612698 91.489047 74.496892 -72.166553 4.034931 3.931563 -0.75474 136.474387 -39.128706 -116.299226 172.896918 -51.894009 -120.180804 -179.005234 -51.126997 -100.963983 160.304423 -5.531943 -143.069504 -168.140846 -65.978968 -130.585088 145.121957 1.974539 179.748654 -22.617578 39.822426 4.959679 159.761954 65.345539 151.084316 147.226736 11.735976 140.10453 -0.0 0.0 -0.0 -0.0 -0.0 -0.0 -4.919407 3.500227 -54.588129 88.891524 33.647607 -8.266405 -0.0 0.0 -0.0 -0.0 -0.0 -0.0 4.919407 3.500227 54.588129 -88.891524 33.647607 8.266405
117.80599999999998 83.5469 -5.37312 -0.0 0.0 -0.0 -0.0 -4.771896 -180.0 0.0 -4.771896 -180.0 12.037091 11.003981 107.450631 -6.863102 14.769388 -107.723792 -0.0 -0.0 0.0 -0.0 -0.0 0.0 -155.504155 -3.514523 161.838528 98.113498 -75.898646 75.658498 10.691877 75.024185 -41.325147 171.955862 -12.768179 144.332039 51.059793 -41.203951 12.856726 -15.031555 -8.481998 -17.086335 -11.063308 15.60616 7.220017 81.468963 -64.04068 41.114919 7.904304 -24.807577 -3.013399 -90.39451 62.74797 79.131913 0.000273 0.036355 0.011422 -16.317988 61.914099 18.662296 -150.032855 28.966435 -145.934982 -111.969838 -40.343205 -112.141648 143.620413 38.233348 -148.080496 -21.154927 1.324157 -7.562125 4.618327 -7.200967 31.470337 -153.732204 -48.967973 -133.102972 171.706035 -9.388422 -89.948992 14.798207 -44.546672 -4.052545 -159.641557 -69.973343 -102.396332 -100.396116 -59.980776 -38.228213 162.802631 -13.379209 -144.140626 -176.760609 -57.247175 -136.816497 75.673382 -72.116249 92.828895 139.869325 39.921333 -156.753252 141.16344 0.470208 138.191234 125.170174 -28.838809 125.572648 -0.0 0.0 -0.0 -0.0 -0.0 -0.0 7.081855 4.181059 77.332942 -151.579957 -27.88746 98.276681 -0.0 0.0 -0.0 -0.0 -0.0 -0.0 -7.081855 4.181059 -77.332942 151.579957 -27.88746 -98.276681
117.808 83.5456 -5.40231 -0.0 0.0 -0.0 -0.0 -4.771896 -180.0 -0.0 -4.771896 -180.0 -8.144544 9.765136 -77.762661 11.253376 5.904095 77.877376 0.0 -0.0 -0.0 0.0 -0.0 -0.0 -85.537448 68.182427 88.688908 5.843373 75.512119 13.59165 -89.965011 -75.613432 -111.641759 48.596287 -65.591705 35.268978 -169.561553 -7.243343 89.929286 -29.533484 -31.405303 5.178077 -95.098932 39.750292 80.124695 177.773204 -53.527856 118.810424 89.035113 -81.393384 59.759886 -13.558447 32.398638 12.780532 0.000474 0.063775 0.020036 -71.947634 -86.862701 -83.163688 1.134951 3.04054 1.043633 -157.410971 38.666958 -148.418616 159.220516 -48.028485 -170.415257 -2.863803 15.761291 -22.442298 179.73087 79.212988 177.178029 5.241036 16.539349 -0.191858 0.543938 0.536215 -0.086055 171.109657 -76.139234 -109.119351 77.667448 43.02965 -64.538509 -3.381009 4.495866 13.264648 57.867671 59.218227 -50.52539 -31.481468 -68.815157 -6.706569 145.121957 1.974539 179.748654 -22.156105 25.901179 6.462869 -1.134951 3.04054 -1.043633 150.307065 13.019817 143.850089 -0.0 0.0 -0.0 -0.0 -2.27635 -180.0 -6.880793 -5.921355 -107.859822 -11.465574 25.060334 -64.504817 -0.0 0.0 -0.0 -0.0 -2.27635 -180.0 6.880793 -5.921355 107.859822 11.465574 25.060334 64.504817
